<svg viewBox="0 0 94 194" fill="currentColor" xmlns="http://www.w3.org/2000/svg">
  <path fill-rule="evenodd" clip-rule="evenodd" d="M1.63359 150.597C0.767178 154.194 0.544587 155.882 1.4347 158.49C4.1547 168.45 11.2847 176.65 19.4547 182.68C28.8347 189.72 40.6647 192.43 52.1547 193.34C62.2547 193.72 72.8247 191.92 81.3947 186.29C89.5847 180.9 94.5847 170.74 93.1947 160.97C92.6152 157.186 87.6885 151.844 87.6885 151.844C87.6885 151.844 84.1147 148 80.6147 140.44C78.9309 136.803 78.8186 132.701 78.7056 128.576C78.5838 124.126 78.4612 119.649 76.3647 115.7C74.3279 111.047 71.1794 107.065 68.038 103.091C64.023 98.013 60.0198 92.9495 58.3647 86.52C54.6747 74.21 59.9247 61.54 66.2147 51.07C68.415 47.209 71.0381 43.5431 73.6627 39.8752C79.1613 32.1909 84.6666 24.4972 86.3047 14.98C86.8247 10.16 87.4447 3.83 83.0847 0.540009C81.2424 1.20169 79.7115 2.41463 78.1808 3.62741C77.3518 4.28418 76.5229 4.9409 75.6447 5.51001C69.7847 9.59001 62.3847 12.69 55.1747 10.74C50.7836 9.94165 46.9357 7.83696 43.0852 5.73088C40.4731 4.30214 37.8595 2.87262 35.0747 1.85002C33.5031 15.8622 34.5704 24.8448 43.4047 35.65C46.1147 39.15 47.5547 43.6 46.9947 48.04C46.7947 51.87 44.1547 54.87 41.7247 57.59C30.0547 70.7 19.9347 85.68 14.9247 102.66C12.1947 112.5 11.3247 123.62 16.1847 132.96C17.3055 135.35 19.0216 137.306 20.74 139.264C27.7638 147.268 33.9647 148.14 33.9647 148.14C33.9647 148.14 62.0347 153.8 76.1847 152.9C82.9547 151.81 87.9747 161.42 83.5347 166.46C80.9047 169.33 76.8047 170.02 73.1147 170.36C62.2147 171.1 51.1847 169.18 41.1047 165.01C37.2343 163.412 33.8928 160.949 30.5494 158.485C27.846 156.492 25.1411 154.498 22.1547 152.96C16.3385 149.358 4.42682 139.001 1.63359 150.597ZM43.0547 15.93C39.5347 19.09 39.2247 25.21 42.5347 28.61C44.8447 31.18 48.4347 33.23 51.9547 32.1C55.1654 31.4196 57.2922 28.8193 59.2682 26.4033C59.354 26.2985 59.4394 26.194 59.5247 26.09C60.2254 26.7535 60.8892 27.5337 61.5607 28.3231C63.5919 30.7107 65.6953 33.1833 69.1147 32.77C74.3347 33.56 78.8247 28.89 79.3947 23.98C79.7947 17.38 71.9647 11.69 65.9247 14.65C63.4462 15.5047 62.0045 17.7112 60.6266 19.8202C60.3924 20.1786 60.16 20.5343 59.9247 20.88C59.5535 20.3326 59.1982 19.755 58.84 19.1726C57.4705 16.9464 56.0573 14.6491 53.5447 13.69C50.0047 12.6 45.6247 12.99 43.0547 15.93Z" />
  <path d="M67.0863 21.2072C65.8472 20.9566 64.5598 20.6964 63.72 21.92C62.86 23.26 63.15 26 65.18 25.96C67.87 26.72 68.8 23.37 68 21.37C67.7037 21.332 67.3964 21.2699 67.0863 21.2072Z"/>
  <path d="M47.8663 20.4943C46.6272 20.2438 45.3398 19.9835 44.5 21.2072C43.64 22.5471 43.93 25.2872 45.96 25.2472C48.65 26.0072 49.58 22.6572 48.78 20.6572C48.4837 20.6191 48.1764 20.557 47.8663 20.4943Z"/>
</svg>
  