<svg viewBox="0 0 83 167" fill="currentColor" xmlns="http://www.w3.org/2000/svg">
  <path d="M47.4363 23.3812C48.6363 23.3812 49.8463 23.3912 51.0563 23.4112C51.0563 24.5512 51.0563 25.7012 51.0563 26.8612C49.8163 26.8712 48.5863 26.8912 47.3563 26.9112C47.3763 25.7312 47.4063 24.5512 47.4363 23.3812Z"/>
  <path d="M28.0463 23.7812C29.4063 23.8912 30.7763 24.0312 32.1463 24.2012C31.9863 25.2712 31.8263 26.3512 31.6763 27.4412C30.5963 27.5912 29.5263 27.7512 28.4563 27.9212C28.2963 26.5312 28.1563 25.1512 28.0463 23.7812Z"/>
  <path fill-rule="evenodd" clip-rule="evenodd" d="M67.7263 126.101C76.6084 119.052 84.1071 110.278 82.7563 98.0912C82.116 92.4867 81.5007 86.8783 80.8853 81.2696L80.8824 81.2433C78.6824 61.1916 76.4818 41.1351 73.1463 21.2312C72.8956 19.9432 72.6674 18.6415 72.4385 17.3358L72.4383 17.3344L72.4378 17.3315C71.4159 11.5021 70.3803 5.59466 67.2763 0.481245C65.903 1.11456 64.5912 1.89358 63.28 2.67235C60.7815 4.15619 58.2846 5.63907 55.3663 6.11123C45.4763 8.01126 35.1963 5.59125 26.3163 1.13124C26.1699 1.06267 26.0188 0.989378 25.8639 0.914289L25.8629 0.913786C24.3473 0.178693 22.48 -0.726946 21.2463 0.951246C18.6934 4.49783 17.7526 8.83417 16.8315 13.0797C16.6124 14.0893 16.3945 15.0938 16.1563 16.0813C14.7031 23.5752 13.3975 31.0976 12.092 38.6195L12.0904 38.6285L12.0902 38.6296C9.84767 51.5503 7.60538 64.4696 4.61627 77.2412C4.10036 79.8404 3.3996 82.3998 2.69908 84.9583C1.6073 88.9459 0.516129 92.9312 0.126267 97.0612C-0.563736 104.041 1.61627 111.141 5.63628 116.831C6.39862 117.914 7.28735 118.903 8.17567 119.892C11.7148 123.833 14.185 126.752 18.5463 129.981C18.5463 129.981 15.8712 133.262 14.4003 134.797C12.1761 137.119 9.95631 139.436 8.68628 142.451C6.20628 147.711 7.50627 154.661 12.1363 158.331C15.9563 161.351 20.7163 162.851 25.3863 164.011C38.2063 166.931 51.7563 167.701 64.6063 164.501C68.2363 163.581 71.8963 162.051 74.3663 159.131C76.2363 157.101 76.3063 154.081 75.9763 151.511C75.0863 149.871 73.0363 149.671 71.3863 149.611C67.9627 149.503 64.5681 149.854 61.1719 150.206C58.9237 150.439 56.6747 150.672 54.4163 150.771C51.8986 150.926 49.3696 151.179 46.836 151.432H46.8344L46.8333 151.432C39.566 152.158 32.2607 152.888 25.0763 151.331C21.7363 150.701 17.5563 148.161 18.5963 144.171C19.9563 139.571 23.2563 135.701 26.7363 132.501C36.1174 130.539 46.7273 131.698 56.3363 130.481C59.3363 130.101 65.8363 127.601 67.7263 126.101ZM31.6963 17.4513C27.4763 19.1112 24.6463 24.4312 26.7363 28.7112C28.6363 33.5012 35.2463 34.8112 39.3163 32.0113C43.1763 29.9712 43.5163 24.9713 42.5263 21.2013C40.8163 17.2112 35.5263 15.5612 31.6963 17.4513ZM49.7763 17.5612C44.9463 19.4812 43.0863 26.1712 46.1163 30.3512C47.7463 32.0812 50.0663 33.0612 52.3963 33.4412C57.9663 33.7912 63.2263 27.7312 61.3363 22.2912C59.8463 17.7112 54.0663 15.1912 49.7763 17.5612Z"/>
  </svg>
  