<svg viewBox="0 0 336 100" fill="none" xmlns="http://www.w3.org/2000/svg">
<path d="M82.045 44.3042C82.045 65.1478 65.1479 82.0449 44.3043 82.0449C23.4607 82.0449 6.56366 65.1478 6.56366 44.3042C6.56366 23.4607 23.4607 6.5636 44.3043 6.5636C65.1479 6.5636 82.045 23.4607 82.045 44.3042Z" fill="url(#paint0_linear)"/>
<path fill-rule="evenodd" clip-rule="evenodd" d="M88.6085 44.3042C88.6085 68.7728 68.7728 88.6085 44.3042 88.6085C19.8357 88.6085 0 68.7728 0 44.3042C0 19.8357 19.8357 0 44.3042 0C68.7728 0 88.6085 19.8357 88.6085 44.3042ZM44.3042 82.0449C65.1478 82.0449 82.0449 65.1478 82.0449 44.3042C82.0449 23.4607 65.1478 6.56359 44.3042 6.56359C23.4607 6.56359 6.56359 23.4607 6.56359 44.3042C6.56359 65.1478 23.4607 82.0449 44.3042 82.0449Z" fill="#CCCCFF"/>
<path d="M25.0074 40.3661C24.7491 41.6386 24.6135 42.9556 24.6135 44.3043C24.6135 55.1792 33.4294 63.9951 44.3043 63.9951C55.1792 63.9951 63.9951 55.1792 63.9951 44.3043C63.9951 33.4294 55.1792 24.6135 44.3043 24.6135C42.9557 24.6135 41.6387 24.7491 40.3663 25.0074V40.3661H25.0074Z" fill="black"/>
<path d="M142.071 29.4693C145.498 29.4693 148.146 30.4869 150.015 32.5221C151.884 34.5574 152.818 37.8594 152.818 42.4283V63.7982H143.411V42.3971C143.411 40.9849 143.224 39.8946 142.85 39.1262C142.476 38.3371 141.936 37.7971 141.23 37.5064C140.545 37.2156 139.673 37.0702 138.613 37.0702C137.347 37.0702 136.267 37.3818 135.374 38.0048C134.481 38.607 133.775 39.4689 133.255 40.5904C133.276 40.7357 133.287 40.9746 133.287 41.3068V63.7982H123.879V42.4906C123.879 41.0784 123.692 39.9777 123.318 39.1885C122.944 38.3994 122.404 37.849 121.698 37.5375C121.013 37.226 120.13 37.0702 119.05 37.0702C117.846 37.0702 116.797 37.3402 115.904 37.8802C115.032 38.3994 113.959 39.141 113.419 40.1171V63.7982H102.786V30.1269H113.419L113.505 33.8616C114.627 32.4495 115.997 31.3695 117.617 30.6219C119.258 29.8535 121.106 29.4693 123.162 29.4693C125.239 29.4693 127.025 29.895 128.52 30.7465C130.036 31.5772 131.199 32.8544 132.009 34.5781C133.131 32.9375 134.533 31.6811 136.215 30.8088C137.918 29.9158 139.87 29.4693 142.071 29.4693Z" fill="black"/>
<path d="M156.263 46.6337C156.263 43.3317 156.886 40.3827 158.132 37.7867C159.398 35.1908 161.236 33.1556 163.645 31.6811C166.054 30.2065 168.931 29.4693 172.274 29.4693C175.639 29.4693 178.525 30.2065 180.934 31.6811C183.364 33.1556 185.202 35.1908 186.448 37.7867C187.715 40.3827 188.349 43.3317 188.349 46.6337V47.2879C188.349 50.59 187.715 53.539 186.448 56.1349C185.202 58.7101 183.375 60.7349 180.966 62.2094C178.557 63.6839 175.68 64.4212 172.337 64.4212C168.972 64.4212 166.075 63.6839 163.645 62.2094C161.236 60.7349 159.398 58.7101 158.132 56.1349C156.886 53.539 156.263 50.59 156.263 47.2879V46.6337ZM165.67 47.2879C165.67 50.1954 166.2 52.5213 167.259 54.2658C168.318 55.9895 170.011 56.8514 172.337 56.8514C174.621 56.8514 176.293 55.9792 177.352 54.2347C178.411 52.4902 178.941 50.1746 178.941 47.2879V46.6337C178.941 43.7678 178.411 41.4522 177.352 39.687C176.293 37.9217 174.6 37.0391 172.274 37.0391C169.99 37.0391 168.318 37.9321 167.259 39.7181C166.2 41.4834 165.67 43.7886 165.67 46.6337V47.2879Z" fill="black"/>
<path d="M210.359 29.4693C213.744 29.4693 216.361 30.4869 218.209 32.5221C220.057 34.5366 220.982 37.8386 220.982 42.4283V63.7982H211.574V42.3971C211.574 40.4034 211.148 39.0224 210.297 38.254C209.445 37.4648 208.126 37.0702 206.34 37.0702C205.115 37.0702 204.046 37.3298 203.132 37.849C202.239 38.3682 201.512 39.1055 200.951 40.0608V63.7982H191.543V30.0923H200.359L200.671 33.9863C201.855 32.5118 203.267 31.3903 204.907 30.6219C206.548 29.8535 208.365 29.4693 210.359 29.4693Z" fill="black"/>
<path d="M224.27 46.6337C224.27 43.3317 224.893 40.3827 226.139 37.7867C227.406 35.1908 229.244 33.1556 231.653 31.6811C234.062 30.2065 236.938 29.4693 240.282 29.4693C243.646 29.4693 246.533 30.2065 248.942 31.6811C251.372 33.1556 253.21 35.1908 254.456 37.7867C255.722 40.3827 256.356 43.3317 256.356 46.6337V47.2879C256.356 50.59 255.722 53.539 254.456 56.1349C253.21 58.7101 251.382 60.7349 248.973 62.2094C246.564 63.6839 243.688 64.4212 240.344 64.4212C236.98 64.4212 234.083 63.6839 231.653 62.2094C229.244 60.7349 227.406 58.7101 226.139 56.1349C224.893 53.539 224.27 50.59 224.27 47.2879V46.6337ZM233.678 47.2879C233.678 50.1954 234.207 52.5213 235.266 54.2658C236.325 55.9895 238.018 56.8514 240.344 56.8514C242.628 56.8514 244.3 55.9792 245.359 54.2347C246.419 52.4902 246.948 50.1746 246.948 47.2879V46.6337C246.948 43.7678 246.419 41.4522 245.359 39.687C244.3 37.9217 242.608 37.0391 240.282 37.0391C237.997 37.0391 236.325 37.9321 235.266 39.7181C234.207 41.4834 233.678 43.7886 233.678 46.6337V47.2879Z" fill="black"/>
<path d="M288.023 51.9918C288.023 54.38 287.4 56.5191 286.154 58.409C284.908 60.2988 283.215 61.7733 281.076 62.8325C278.958 63.8916 276.601 64.4212 274.005 64.4212C270.62 64.4212 267.754 63.6839 265.407 62.2094C263.06 60.7349 261.295 58.7101 260.111 56.1349C258.948 53.5597 258.367 50.6315 258.367 47.3502V46.5403C258.367 43.259 258.948 40.3308 260.111 37.7556C261.295 35.1804 263.05 33.1556 265.376 31.6811C267.723 30.2065 270.578 29.4693 273.943 29.4693C276.705 29.4693 279.145 30.0093 281.263 31.0892C283.402 32.1483 285.064 33.6851 286.247 35.6996C287.431 37.6933 288.023 40.0504 288.023 42.771H279.207C279.186 41.1095 278.698 39.7389 277.743 38.659C276.788 37.5791 275.459 37.0391 273.756 37.0391C271.471 37.0391 269.903 37.9009 269.052 39.6247C268.2 41.3276 267.775 43.6328 267.775 46.5403V47.3502C267.775 50.32 268.19 52.646 269.021 54.3281C269.872 56.0103 271.471 56.8514 273.818 56.8514C275.438 56.8514 276.736 56.4153 277.712 55.543C278.688 54.6708 279.186 53.487 279.207 51.9918H288.023Z" fill="black"/>
<path d="M291.592 63.7982V15.9496H301.031V63.7982H291.592Z" fill="black"/>
<path d="M336 49.9981H314.692C315.045 52.0956 315.918 53.7674 317.309 55.0135C318.701 56.2388 320.487 56.8514 322.667 56.8514C324.287 56.8514 325.782 56.5503 327.153 55.948C328.544 55.325 329.728 54.4008 330.704 53.1755L335.221 58.3778C334.037 60.0808 332.303 61.5137 330.019 62.6767C327.755 63.8397 325.097 64.4212 322.044 64.4212C318.597 64.4212 315.596 63.6943 313.041 62.2406C310.508 60.7869 308.556 58.8139 307.185 56.3218C305.835 53.8297 305.16 51.078 305.16 48.0667V46.8829C305.16 43.5186 305.794 40.5177 307.06 37.8802C308.327 35.2427 310.155 33.1867 312.543 31.7122C314.931 30.2169 317.756 29.4693 321.016 29.4693C324.194 29.4693 326.904 30.1442 329.147 31.4941C331.39 32.844 333.093 34.765 334.256 37.2572C335.419 39.7285 336 42.6463 336 46.0107V49.9981ZM326.779 42.9579C326.738 41.1303 326.229 39.687 325.253 38.6278C324.297 37.5687 322.865 37.0391 320.954 37.0391C319.168 37.0391 317.766 37.631 316.748 38.8147C315.752 39.9985 315.097 41.6287 314.786 43.7055H326.779V42.9579Z" fill="black"/>
<path d="M109.336 94.5989L105.085 82.3584H105.005C105.119 84.1762 105.175 85.8805 105.175 87.4711V94.5989H103V79.9424H106.378L110.449 91.6014H110.509L114.699 79.9424H118.088V94.5989H115.782V87.3508C115.782 86.6223 115.799 85.6733 115.832 84.5037C115.872 83.3341 115.906 82.6257 115.932 82.3784H115.852L111.451 94.5989H109.336Z" fill="#ACBACE"/>
<path d="M131.531 89.035C131.531 90.8462 131.067 92.2597 130.138 93.2756C129.209 94.2915 127.915 94.7994 126.258 94.7994C125.222 94.7994 124.306 94.5655 123.511 94.0977C122.716 93.6298 122.104 92.9582 121.677 92.0826C121.249 91.2071 121.035 90.1913 121.035 89.035C121.035 87.2372 121.496 85.8337 122.418 84.8245C123.341 83.8153 124.641 83.3108 126.318 83.3108C127.922 83.3108 129.192 83.8287 130.128 84.8646C131.063 85.8939 131.531 87.284 131.531 89.035ZM123.461 89.035C123.461 91.5948 124.407 92.8746 126.298 92.8746C128.169 92.8746 129.105 91.5948 129.105 89.035C129.105 86.502 128.163 85.2356 126.278 85.2356C125.289 85.2356 124.57 85.563 124.123 86.218C123.682 86.873 123.461 87.812 123.461 89.035Z" fill="#ACBACE"/>
<path d="M144.002 94.5989H141.636V87.7819C141.636 86.9264 141.463 86.2882 141.115 85.8671C140.774 85.4461 140.23 85.2356 139.481 85.2356C138.485 85.2356 137.757 85.5296 137.296 86.1178C136.834 86.7059 136.604 87.6917 136.604 89.0751V94.5989H134.248V83.5113H136.093L136.423 84.9649H136.544C136.878 84.4369 137.352 84.0292 137.967 83.7418C138.582 83.4544 139.264 83.3108 140.012 83.3108C142.672 83.3108 144.002 84.6641 144.002 87.3709V94.5989Z" fill="#ACBACE"/>
<path d="M157.115 89.035C157.115 90.8462 156.65 92.2597 155.722 93.2756C154.793 94.2915 153.499 94.7994 151.842 94.7994C150.806 94.7994 149.89 94.5655 149.095 94.0977C148.3 93.6298 147.688 92.9582 147.26 92.0826C146.833 91.2071 146.619 90.1913 146.619 89.035C146.619 87.2372 147.08 85.8337 148.002 84.8245C148.925 83.8153 150.224 83.3108 151.902 83.3108C153.506 83.3108 154.776 83.8287 155.711 84.8646C156.647 85.8939 157.115 87.284 157.115 89.035ZM149.045 89.035C149.045 91.5948 149.991 92.8746 151.882 92.8746C153.753 92.8746 154.689 91.5948 154.689 89.035C154.689 86.502 153.747 85.2356 151.862 85.2356C150.873 85.2356 150.154 85.563 149.707 86.218C149.265 86.873 149.045 87.812 149.045 89.035Z" fill="#ACBACE"/>
<path d="M165.496 83.3108C166.879 83.3108 167.955 83.812 168.724 84.8145C169.499 85.817 169.887 87.2238 169.887 89.035C169.887 90.8529 169.496 92.2698 168.714 93.2856C167.932 94.2948 166.846 94.7994 165.456 94.7994C164.052 94.7994 162.963 94.2948 162.188 93.2856H162.027L161.596 94.5989H159.832V79H162.188V82.7093C162.188 82.9833 162.174 83.391 162.148 83.9323C162.121 84.4737 162.101 84.8178 162.087 84.9649H162.188C162.936 83.8621 164.039 83.3108 165.496 83.3108ZM164.884 85.2356C163.935 85.2356 163.25 85.5163 162.829 86.0777C162.415 86.6324 162.201 87.5647 162.188 88.8746V89.035C162.188 90.3851 162.402 91.3642 162.829 91.9724C163.257 92.5739 163.955 92.8746 164.924 92.8746C165.76 92.8746 166.391 92.5438 166.819 91.8821C167.254 91.2205 167.471 90.2648 167.471 89.015C167.471 86.4954 166.609 85.2356 164.884 85.2356Z" fill="#ACBACE"/>
<path d="M179.561 94.5989L179.09 93.0551H179.01C178.475 93.7301 177.937 94.1912 177.396 94.4385C176.854 94.6791 176.159 94.7994 175.31 94.7994C174.221 94.7994 173.369 94.5053 172.754 93.9172C172.146 93.3291 171.842 92.497 171.842 91.421C171.842 90.2781 172.266 89.416 173.115 88.8345C173.964 88.2531 175.257 87.9356 176.995 87.8822L178.909 87.822V87.2305C178.909 86.5221 178.742 85.9941 178.408 85.6466C178.081 85.2924 177.569 85.1153 176.874 85.1153C176.306 85.1153 175.762 85.1988 175.24 85.3659C174.719 85.533 174.218 85.7301 173.736 85.9574L172.975 84.2732C173.576 83.959 174.234 83.7218 174.949 83.5614C175.665 83.3943 176.34 83.3108 176.975 83.3108C178.385 83.3108 179.447 83.6182 180.162 84.2331C180.884 84.8479 181.245 85.8137 181.245 87.1303V94.5989H179.561ZM176.052 92.9949C176.908 92.9949 177.593 92.7577 178.107 92.2831C178.629 91.8019 178.889 91.1303 178.889 90.2681V89.3057L177.466 89.3659C176.356 89.406 175.548 89.5931 175.04 89.9273C174.538 90.2547 174.288 90.7593 174.288 91.441C174.288 91.9356 174.435 92.3199 174.729 92.5939C175.023 92.8612 175.464 92.9949 176.052 92.9949Z" fill="#ACBACE"/>
<path d="M194.288 94.5989H191.922V87.7819C191.922 86.9264 191.748 86.2882 191.401 85.8671C191.06 85.4461 190.515 85.2356 189.766 85.2356C188.771 85.2356 188.042 85.5296 187.581 86.1178C187.12 86.7059 186.889 87.6917 186.889 89.0751V94.5989H184.533V83.5113H186.378L186.709 84.9649H186.829C187.163 84.4369 187.638 84.0292 188.253 83.7418C188.868 83.4544 189.549 83.3108 190.298 83.3108C192.958 83.3108 194.288 84.6641 194.288 87.3709V94.5989Z" fill="#ACBACE"/>
<path d="M199.842 88.7443L201.175 87.0802L204.523 83.5113H207.24L202.779 88.2731L207.521 94.5989H204.754L201.195 89.7368L199.902 90.7994V94.5989H197.566V79H199.902V86.609L199.781 88.7443H199.842Z" fill="#ACBACE"/>
<path d="M218.388 94.7994C217.004 94.7994 215.925 94.2982 215.15 93.2957C214.374 92.2932 213.987 90.8863 213.987 89.0751C213.987 87.2573 214.378 85.8437 215.16 84.8346C215.948 83.8187 217.038 83.3108 218.428 83.3108C219.885 83.3108 220.994 83.8488 221.756 84.9248H221.877C221.763 84.1295 221.706 83.5012 221.706 83.0401V79H224.072V94.5989H222.227L221.816 93.1453H221.706C220.951 94.248 219.845 94.7994 218.388 94.7994ZM219.019 92.8947C219.988 92.8947 220.694 92.624 221.135 92.0826C221.576 91.5346 221.803 90.6491 221.816 89.426V89.0952C221.816 87.6984 221.589 86.7059 221.135 86.1178C220.68 85.5296 219.968 85.2356 218.999 85.2356C218.171 85.2356 217.532 85.5731 217.085 86.2481C216.637 86.9164 216.413 87.8721 216.413 89.1152C216.413 90.345 216.63 91.284 217.065 91.9323C217.499 92.5739 218.151 92.8947 219.019 92.8947Z" fill="#ACBACE"/>
<path d="M232.282 94.7994C230.558 94.7994 229.208 94.2982 228.232 93.2957C227.263 92.2865 226.779 90.8997 226.779 89.1353C226.779 87.3241 227.23 85.9005 228.132 84.8646C229.034 83.8287 230.274 83.3108 231.851 83.3108C233.315 83.3108 234.471 83.7552 235.32 84.6441C236.169 85.533 236.593 86.756 236.593 88.3132V89.5864H229.205C229.238 90.6624 229.529 91.4912 230.077 92.0726C230.625 92.6474 231.397 92.9348 232.393 92.9348C233.048 92.9348 233.656 92.8746 234.217 92.7543C234.785 92.6273 235.394 92.4201 236.042 92.1328V94.0475C235.467 94.3216 234.886 94.5154 234.298 94.629C233.709 94.7426 233.038 94.7994 232.282 94.7994ZM231.851 85.0952C231.103 85.0952 230.501 85.3325 230.047 85.807C229.599 86.2815 229.332 86.9732 229.245 87.8822H234.277C234.264 86.9665 234.044 86.2748 233.616 85.807C233.188 85.3325 232.6 85.0952 231.851 85.0952Z" fill="#ACBACE"/>
<path d="M246.719 91.441C246.719 92.5237 246.324 93.3558 245.536 93.9373C244.747 94.512 243.617 94.7994 242.147 94.7994C240.67 94.7994 239.484 94.5755 238.588 94.1277V92.0927C239.891 92.6942 241.104 92.9949 242.227 92.9949C243.678 92.9949 244.403 92.5572 244.403 91.6816C244.403 91.4009 244.323 91.167 244.162 90.9799C244.002 90.7928 243.738 90.5989 243.37 90.3984C243.003 90.1979 242.491 89.9707 241.836 89.7167C240.56 89.2222 239.694 88.7276 239.24 88.233C238.792 87.7385 238.568 87.0969 238.568 86.3082C238.568 85.3592 238.949 84.624 239.711 84.1027C240.48 83.5747 241.522 83.3108 242.839 83.3108C244.142 83.3108 245.375 83.5747 246.538 84.1027L245.776 85.8772C244.58 85.3826 243.574 85.1353 242.759 85.1353C241.516 85.1353 240.894 85.4895 240.894 86.198C240.894 86.5455 241.054 86.8396 241.375 87.0802C241.703 87.3208 242.411 87.6516 243.5 88.0726C244.416 88.4268 245.081 88.751 245.495 89.0451C245.91 89.3391 246.217 89.68 246.418 90.0676C246.618 90.4486 246.719 90.9064 246.719 91.441Z" fill="#ACBACE"/>
<path d="M251.551 88.7443L252.884 87.0802L256.232 83.5113H258.949L254.488 88.2731L259.23 94.5989H256.463L252.904 89.7368L251.611 90.7994V94.5989H249.275V79H251.611V86.609L251.49 88.7443H251.551Z" fill="#ACBACE"/>
<path d="M265.154 92.8947C265.729 92.8947 266.304 92.8044 266.879 92.624V94.3984C266.618 94.512 266.281 94.6056 265.866 94.6791C265.459 94.7593 265.034 94.7994 264.593 94.7994C262.361 94.7994 261.245 93.6231 261.245 91.2706V85.2957H259.731V84.2531L261.355 83.391L262.157 81.0451H263.611V83.5113H266.769V85.2957H263.611V91.2305C263.611 91.7986 263.751 92.2196 264.032 92.4937C264.319 92.761 264.693 92.8947 265.154 92.8947Z" fill="#ACBACE"/>
<path d="M278.939 89.035C278.939 90.8462 278.474 92.2597 277.545 93.2756C276.616 94.2915 275.323 94.7994 273.666 94.7994C272.63 94.7994 271.714 94.5655 270.919 94.0977C270.124 93.6298 269.512 92.9582 269.084 92.0826C268.657 91.2071 268.443 90.1913 268.443 89.035C268.443 87.2372 268.904 85.8337 269.826 84.8245C270.748 83.8153 272.048 83.3108 273.726 83.3108C275.33 83.3108 276.6 83.8287 277.535 84.8646C278.471 85.8939 278.939 87.284 278.939 89.035ZM270.869 89.035C270.869 91.5948 271.814 92.8746 273.706 92.8746C275.577 92.8746 276.513 91.5948 276.513 89.035C276.513 86.502 275.57 85.2356 273.686 85.2356C272.697 85.2356 271.978 85.563 271.53 86.218C271.089 86.873 270.869 87.812 270.869 89.035Z" fill="#ACBACE"/>
<path d="M287.28 94.7994C285.876 94.7994 284.787 94.2948 284.012 93.2856H283.871C283.965 94.2213 284.012 94.7894 284.012 94.9899V99.5312H281.656V83.5113H283.56C283.614 83.7184 283.724 84.213 283.891 84.995H284.012C284.747 83.8722 285.849 83.3108 287.32 83.3108C288.703 83.3108 289.779 83.812 290.548 84.8145C291.323 85.817 291.711 87.2238 291.711 89.035C291.711 90.8462 291.316 92.2597 290.528 93.2756C289.746 94.2915 288.663 94.7994 287.28 94.7994ZM286.708 85.2356C285.773 85.2356 285.088 85.5096 284.653 86.0576C284.225 86.6056 284.012 87.4812 284.012 88.6842V89.035C284.012 90.3851 284.225 91.3642 284.653 91.9724C285.081 92.5739 285.779 92.8746 286.748 92.8746C287.564 92.8746 288.192 92.5404 288.633 91.8721C289.074 91.2038 289.295 90.2514 289.295 89.015C289.295 87.7719 289.074 86.8329 288.633 86.198C288.199 85.5564 287.557 85.2356 286.708 85.2356Z" fill="#ACBACE"/>
<path d="M306.718 94.5989L306.247 93.0551H306.167C305.632 93.7301 305.094 94.1912 304.553 94.4385C304.011 94.6791 303.316 94.7994 302.468 94.7994C301.378 94.7994 300.526 94.5053 299.911 93.9172C299.303 93.3291 298.999 92.497 298.999 91.421C298.999 90.2781 299.423 89.416 300.272 88.8345C301.121 88.2531 302.414 87.9356 304.152 87.8822L306.067 87.822V87.2305C306.067 86.5221 305.899 85.9941 305.565 85.6466C305.238 85.2924 304.727 85.1153 304.031 85.1153C303.463 85.1153 302.919 85.1988 302.397 85.3659C301.876 85.533 301.375 85.7301 300.894 85.9574L300.132 84.2732C300.733 83.959 301.392 83.7218 302.107 83.5614C302.822 83.3943 303.497 83.3108 304.132 83.3108C305.542 83.3108 306.605 83.6182 307.32 84.2331C308.041 84.8479 308.402 85.8137 308.402 87.1303V94.5989H306.718ZM303.209 92.9949C304.065 92.9949 304.75 92.7577 305.265 92.2831C305.786 91.8019 306.046 91.1303 306.046 90.2681V89.3057L304.623 89.3659C303.514 89.406 302.705 89.5931 302.197 89.9273C301.696 90.2547 301.445 90.7593 301.445 91.441C301.445 91.9356 301.592 92.3199 301.886 92.5939C302.18 92.8612 302.621 92.9949 303.209 92.9949Z" fill="#ACBACE"/>
<path d="M317.315 94.7994C315.911 94.7994 314.822 94.2948 314.046 93.2856H313.906C314 94.2213 314.046 94.7894 314.046 94.9899V99.5312H311.691V83.5113H313.595C313.649 83.7184 313.759 84.213 313.926 84.995H314.046C314.782 83.8722 315.884 83.3108 317.355 83.3108C318.738 83.3108 319.814 83.812 320.583 84.8145C321.358 85.817 321.746 87.2238 321.746 89.035C321.746 90.8462 321.351 92.2597 320.563 93.2756C319.781 94.2915 318.698 94.7994 317.315 94.7994ZM316.743 85.2356C315.808 85.2356 315.122 85.5096 314.688 86.0576C314.26 86.6056 314.046 87.4812 314.046 88.6842V89.035C314.046 90.3851 314.26 91.3642 314.688 91.9724C315.116 92.5739 315.814 92.8746 316.783 92.8746C317.599 92.8746 318.227 92.5404 318.668 91.8721C319.109 91.2038 319.33 90.2514 319.33 89.015C319.33 87.7719 319.109 86.8329 318.668 86.198C318.234 85.5564 317.592 85.2356 316.743 85.2356Z" fill="#ACBACE"/>
<path d="M330.107 94.7994C328.703 94.7994 327.614 94.2948 326.838 93.2856H326.698C326.792 94.2213 326.838 94.7894 326.838 94.9899V99.5312H324.482V83.5113H326.387C326.441 83.7184 326.551 84.213 326.718 84.995H326.838C327.574 83.8722 328.676 83.3108 330.147 83.3108C331.53 83.3108 332.606 83.812 333.375 84.8145C334.15 85.817 334.538 87.2238 334.538 89.035C334.538 90.8462 334.143 92.2597 333.355 93.2756C332.573 94.2915 331.49 94.7994 330.107 94.7994ZM329.535 85.2356C328.599 85.2356 327.914 85.5096 327.48 86.0576C327.052 86.6056 326.838 87.4812 326.838 88.6842V89.035C326.838 90.3851 327.052 91.3642 327.48 91.9724C327.908 92.5739 328.606 92.8746 329.575 92.8746C330.391 92.8746 331.019 92.5404 331.46 91.8721C331.901 91.2038 332.122 90.2514 332.122 89.015C332.122 87.7719 331.901 86.8329 331.46 86.198C331.025 85.5564 330.384 85.2356 329.535 85.2356Z" fill="#ACBACE"/>
<defs>
<linearGradient id="paint0_linear" x1="17.6638" y1="70.9447" x2="81.7744" y2="40.3771" gradientUnits="userSpaceOnUse">
<stop stop-color="#8181FF"/>
<stop offset="1" stop-color="#FFCCCC"/>
</linearGradient>
</defs>
</svg>
